# xmcd CD database file
#
# Track frame offsets:
#	150
#	19735
#	38952
#	58062
#	71058
#	88939
#	102566
#	123421
#	147621
#	164535
#	184233
#	204814
#	217619
#	234712
#
# Disc length: 3366 seconds
#
# Revision: 2
# Processed by: cddbd v1.5.2PL0 Copyright (c) Steve Scherf et al.
# Submitted via: CDex 1.51
#
DISCID=d10d240e
DTITLE=Compay Segundo - 100th Birthday Celebration
DYEAR=2007
DGENRE=Salsa
TTITLE0=Chan Chan
TTITLE1=Yo vengo aquí
TTITLE2=Hey caramba
TTITLE3=Sarandonga
TTITLE4=La negra Tomasa
TTITLE5=Frutas del Caney
TTITLE6=La juma de ayer
TTITLE7=Una rosa de Francia
TTITLE8=El camisón de Pepa
TTITLE9=La engañadora
TTITLE10=Juliancito, tu novia te botó
TTITLE11=María en el playa
TTITLE12=Lágrimas negras
TTITLE13=Clarabella
EXTD=YEAR: 2007
EXTT0=
EXTT1=
EXTT2=
EXTT3=
EXTT4=
EXTT5=
EXTT6=
EXTT7=
EXTT8=
EXTT9=
EXTT10=
EXTT11=
EXTT12=
EXTT13=
PLAYORDER=
